Chosen for their ability to kill without conscience, a group of killers, some trained and some who are not, must endeavour the alien race of predators that have set out to target them as prey. Dropped into the vast jungle of a distant world, these human predators must learn just who, or what, they are up against, and that their ability, knowledge and wits are tested to the limits in the battle of survival of kill or be killed.
 
http://www.imdb.com/title/tt1424381/

Subtitles (srt) : Dutch, English.

Covers included.

De film speelt zich af op de jungle-achtige thuisplaneet van de Predators. Op deze planeet huist ook een 'Mega-Predator' die elk jaar een groep van de gevaarlijkste individuen van de planeet aarde ontvoert, om ze vervolgens als prooi vrij te laten in de dodelijke jungle van de Predator-thuisplaneet. Royce (Adrien Brody) is de leider van een groepje huurlingen, dat onder andere bestaat uit een taaie vrouwelijke moordenaar, een man die totaal niet bang is om te sterven en een voormalige Russisch geheimagent. Samen moeten ze zien te overleven in de wildernis terwijl ze wanhopig proberen uit te vinden wat er met hen is gebeurd en door wie of wat ze worden opgejaagd...
 
http://www.moviemeter.nl/film/64490

Ondertitels (srt) : Engels, Nederlands.

Hoesjes bijgevoegd.

General
Complete name                    : Predators-AC3-XviD-BRRip[Eng]2010 2Lions-Team\Predators-AC3-XviD-BRRip[Eng]2010 2Lions-Team.avi
Format                           : AVI
Format/Info                      : Audio Video Interleave
File size                        : 1.46 GiB
Duration                         : 1h 46mn
Overall bit rate                 : 1 957 Kbps
Writing application              : VirtualDubMod 1.5.4.1 (build 2178/release)
Writing library                  : VirtualDubMod build 2178/release
Source                           : Predators.2010.720p.BluRay.x264-METiS


Video
ID                               : 0
Format                           : MPEG-4 Visual
Format profile                   : Simple@L3
Format settings, BVOP            : No
Format settings, QPel            : No
Format settings, GMC             : No warppoints
Format settings, Matrix          : Default (H.263)
Codec ID                         : XVID
Codec ID/Hint                    : XviD
Duration                         : 1h 46mn
Bit rate                         : 1 500 Kbps
Width                            : 720 pixels
Height                           : 304 pixels
Display aspect ratio             : 2.35:1
Frame rate                       : 23.976 fps
Color space                      : YUV
Chroma subsampling               : 4:2:0
Bit depth                        : 8 bits
Scan type                        : Progressive
Bits/(Pixel*Frame)               : 0.286
Stream size                      : 1.12 GiB (77%)
Writing library                  : XviD 1.1.2 (UTC 2006-11-01)

Audio
ID                               : 1
Format                           : AC-3
Format/Info                      : Audio Coding 3
Mode extension                   : CM (complete main)
Codec ID                         : 2000
Duration                         : 1h 46mn
Bit rate mode                    : Constant
Bit rate                         : 448 Kbps
Channel(s)                       : 6 channels
Channel positions                : Front: L C R, Side: L R, LFE
Sampling rate                    : 48.0 KHz
Bit depth                        : 16 bits
Stream size                      : 342 MiB (23%)
Alignment                        : Split accross interleaves
Interleave, duration             : 42 ms (1.00 video frame)
Interleave, preload duration     : 500 ms

Thanks to SimplyReleaseS for the Dutch subs.


Brought to you by 
2Lions Team

meer zien??
                   
Kom dan eens kijken op ons NIEUWE forum 
            
http://www.2lions-site.nl/

2Lions the site to be for all your Dutch MOVIES and more

******************************************

DON T HIT AND RUN Niet gelijk afhaken als de FILM binnen is blijf seeden. 

Don`t quit after you finished the download, but keep seeding

There are fake torrents from uploaders who use our team name.
Those are not ours, or members from our team.
We 2Lions-Team are not responsible for the fake posts on our name

Wij 2Lions-Team zijn niet verantwoordelijk voor die zieke FAKE posten die op onze naam worden gedaan

Please check our site !!!

to the fakers , get a life !!!